# xmcd CD database file
#
# Track frame offsets:
#	150
#	17007
#	36367
#	50054
#	69181
#	85482
#	104101
#	117328
#	133865
#	148577
#	164755
#	186324
#	201912
#	220288
#	239334
#	259466
#	276388
#	293778
#	312695
#	328585
#
# Disc length: 4666 seconds
#
# Revision: 0
# Processed by: cddbd v1.5.2PL0 Copyright (c) Steve Scherf et al.
# Submitted via: CDex 1.51
#
DISCID=53123814
DTITLE=Rick and Renner as 20 mais - Volume 3
DYEAR=1900
DGENRE=Country
TTITLE0=eu e sabia
TTITLE1=eu mereço
TTITLE2=ce ta querendo o que
TTITLE3=homem carente
TTITLE4=voce decide
TTITLE5=bebedeira
TTITLE6=so coisa
TTITLE7=brega demais
TTITLE8=pra da um picote
TTITLE9=eu sem voce
TTITLE10=a força do amor
TTITLE11=ela e demais
TTITLE12=nos bares na cidade
TTITLE13=sem direção
TTITLE14=o amor e eu
TTITLE15=uma foto sua
TTITLE16=nois tropica mais não cai
TTITLE17=cara de pau
TTITLE18=fica amor ta cedo
TTITLE19=e dez e cem e mil
EXTD=
EXTT0=
EXTT1=
EXTT2=
EXTT3=
EXTT4=
EXTT5=
EXTT6=
EXTT7=
EXTT8=
EXTT9=
EXTT10=
EXTT11=
EXTT12=
EXTT13=
EXTT14=
EXTT15=
EXTT16=
EXTT17=
EXTT18=
EXTT19=
PLAYORDER=
